<?xml version="1.0" standalone="no"?>
<!DOCTYPE svg PUBLIC "-//W3C//DTD SVG 1.1//EN" "http://www.w3.org/Graphics/SVG/1.1/DTD/svg11.dtd" >
<!--
2013-9-30: Created.
-->
<svg>
<metadata>
Created by iconfont
</metadata>
<defs>

<font id="iconfont" horiz-adv-x="1024" >
  <font-face
    font-family="iconfont"
    font-weight="500"
    font-stretch="normal"
    units-per-em="1024"
    ascent="896"
    descent="-128"
  />
    <missing-glyph />
    
    <glyph glyph-name="x" unicode="x" horiz-adv-x="1001"
d="M281 543q-27 -1 -53 -1h-83q-18 0 -36.5 -6t-32.5 -18.5t-23 -32t-9 -45.5v-76h912v41q0 16 -0.5 30t-0.5 18q0 13 -5 29t-17 29.5t-31.5 22.5t-49.5 9h-133v-97h-438v97zM955 310v-52q0 -23 0.5 -52t0.5 -58t-10.5 -47.5t-26 -30t-33 -16t-31.5 -4.5q-14 -1 -29.5 -0.5
t-29.5 0.5h-32l-45 128h-439l-44 -128h-29h-34q-20 0 -45 1q-25 0 -41 9.5t-25.5 23t-13.5 29.5t-4 30v167h911zM163 247q-12 0 -21 -8.5t-9 -21.5t9 -21.5t21 -8.5q13 0 22 8.5t9 21.5t-9 21.5t-22 8.5zM316 123q-8 -26 -14 -48q-5 -19 -10.5 -37t-7.5 -25t-3 -15t1 -14.5
t9.5 -10.5t21.5 -4h37h67h81h80h64h36q23 0 34 12t2 38q-5 13 -9.5 30.5t-9.5 34.5q-5 19 -11 39h-368zM336 498v228q0 11 2.5 23t10 21.5t20.5 15.5t34 6h188q31 0 51.5 -14.5t20.5 -52.5v-227h-327z" />
    

    
    <glyph glyph-name="yuyuejiantouzuo" unicode="&#58889;" d="M258.24 384L864 853.952 819.968 896 209.152 422.08l-5.12 3.968L160 384l44.032-42.048 5.12 3.968L819.968-128l43.968 42.048L258.24 384z"  horiz-adv-x="1024" />

    
    <glyph glyph-name="yuyuejiantouyou" unicode="&#58890;" d="M765.76 384L160 853.952 204.032 896l610.88-473.92 5.12 3.968L864 384l-44.032-42.048-5.12 3.968L204.096-128 160-85.952 765.76 384z"  horiz-adv-x="1024" />

    
    <glyph glyph-name="Shape-h" unicode="&#58891;" d="M368.706564 617.155486L493.325806 877.453032c11.878252 24.78049 30.719616 24.678092 42.39307 0l121.444882-261.935926a102.39872 102.39872 0 0 1 68.351146-52.684141l274.735766-43.673054c26.162873-4.147148 31.948401-23.090911 12.851039-42.341871l-200.189498-201.879077a109.976225 109.976225 0 0 1-26.726066-84.376545l45.209035-287.279609c4.351946-27.391658-11.110261-38.962713-34.457169-25.906876l-245.244934 137.163085a97.790778 97.790778 0 0 1-84.83734 0.511994l-246.678516-134.142323c-23.551706-12.697441-38.809115-0.921588-34.149974 26.36767l48.741791 286.767615a110.232222 110.232222 0 0 1-25.59968 84.683742l-197.783128 204.79744c-18.841364 19.455757-12.851039 38.39952 13.311834 42.188273l275.401357 40.037899a102.39872 102.39872 0 0 1 68.607143 51.404158z"  horiz-adv-x="1024" />

    
    <glyph glyph-name="Shape" unicode="&#58892;" d="M368.706564 617.155486L493.325806 877.453032c11.878252 24.78049 30.719616 24.678092 42.39307 0l121.444882-261.935926a102.39872 102.39872 0 0 1 68.351146-52.684141l274.735766-43.673054c26.162873-4.147148 31.948401-23.090911 12.851039-42.341871l-200.189498-201.879077a109.976225 109.976225 0 0 1-26.726066-84.376545l45.209035-287.279609c4.351946-27.391658-11.110261-38.962713-34.457169-25.906876l-245.244934 137.163085a97.790778 97.790778 0 0 1-84.83734 0.511994l-246.678516-134.142323c-23.551706-12.697441-38.809115-0.921588-34.149974 26.36767l48.741791 286.767615a110.232222 110.232222 0 0 1-25.59968 84.683742l-197.783128 204.79744c-18.841364 19.455757-12.851039 38.39952 13.311834 42.188273l275.401357 40.037899a102.39872 102.39872 0 0 1 68.607143 51.404158z"  horiz-adv-x="1024" />

    
    <glyph glyph-name="jinri" unicode="&#58893;" d="M468.0704 97.5872a26.112 26.112 0 0 0-10.5984 49.92c77.6704 34.4576 136.3456 81.92 174.9504 141.5168H324.096a26.112 26.112 0 0 0 0 52.224h352.768a26.112 26.112 0 0 0 23.552-37.3248c-42.1376-88.9344-116.736-157.5936-221.696-204.1344a27.136 27.136 0 0 0-10.5984-2.2016z m113.2544 271.0016a26.0608 26.0608 0 0 0-16.7424 6.0928 559.872 559.872 0 0 1-116.992 75.264 26.112 26.112 0 0 0 22.6304 47.0016c46.2848-22.272 89.2928-49.9712 127.8976-82.2272a26.112 26.112 0 0 0-16.7936-46.1312z m-336.2816 39.424a26.0608 26.0608 0 0 0-12.3904 49.0496C339.4048 514.56 426.8032 583.2704 492.3904 661.1456a26.112 26.112 0 0 0 19.8144 9.2672h0.1536c7.6288 0 14.848-3.328 19.7632-9.1136a854.528 854.528 0 0 1 258.816-203.3664 26.112 26.112 0 1 0-23.8592-46.4384 908.032 908.032 0 0 0-254.6176 193.4336C445.2352 531.3024 359.5776 466.176 257.3312 411.136a25.088 25.088 0 0 0-12.288-3.1744zM512-126.976C230.2464-126.976 1.024 102.2976 1.024 384S230.2976 894.976 512 894.976s510.976-229.2224 510.976-510.976-229.2224-510.976-510.976-510.976z m0 969.728c-252.928 0-458.752-205.824-458.752-458.752 0-252.928 205.824-458.752 458.752-458.752 252.928 0 458.752 205.824 458.752 458.752 0 252.928-205.824 458.752-458.752 458.752z"  horiz-adv-x="1024" />

    
    <glyph glyph-name="paixuxiao" unicode="&#58894;" d="M64 640h128v-768H64zM448 896h128v-1024H448zM832 512h128v-640H832z"  horiz-adv-x="1024" />

    
    <glyph glyph-name="paixu" unicode="&#58895;" d="M0 691.2h204.8v-819.2H0zM409.6 896h204.8v-1024H409.6zM819.2 486.4h204.8v-614.4H819.2z"  horiz-adv-x="1024" />

    
    <glyph glyph-name="fanhui" unicode="&#58896;" d="M183.389091 704.139636H646.981818c306.082909 0 381.393455-169.797818 381.393455-369.384727 0-199.68-118.877091-372.549818-474.018909-372.549818H88.064V60.043636h466.385455c193.349818 0 380.090182 86.946909 380.090181 274.804364 0 187.671273-94.114909 277.876364-287.464727 277.876364H183.296l211.316364-184.133819H283.182545l-278.807272 232.727273L282.996364 892.555636H394.705455L183.389091 704.139636z"  horiz-adv-x="1117" />

    
    <glyph glyph-name="dayin" unicode="&#58897;" d="M216.746667 554.154667h340.992v-84.565334H216.746667v84.48z m594.090666-257.28V385.194667H212.906667V296.96h-84.821334V638.293333h682.752c36.949333 0 83.2-46.762667 83.2-82.261333V296.96h-83.2zM300.117333 805.546667h422.4v-80.554667h-422.4v80.554667z m569.514667-80.554667h-44.714667V896H199.082667v-170.922667H42.666667v-405.76c0-58.965333 50.090667-107.008 111.786666-107.008h148.650667V297.813333h425.130667v-85.504H981.333333V617.984c0 58.965333-50.090667 107.093333-111.701333 107.093333zM721.664 119.978667v-78.677334H302.933333v78.677334H212.48v-164.693334H815.104v164.693334H721.664z"  horiz-adv-x="1024" />

    
    <glyph glyph-name="fanyeyou" unicode="&#58898;" d="M665.617645 410.991311L247.846212-6.701356a39.382677 39.382677 0 0 1 55.76587-55.687105L749.108919 383.187142a39.225146 39.225146 0 0 1 0 55.687104L303.612082 884.449849a39.382677 39.382677 0 1 1-55.76587-55.76587L665.617645 410.991311z"  horiz-adv-x="1024" />

    
    <glyph glyph-name="fanyezuo" unicode="&#58899;" d="M331.434487 411.006237L749.138721-6.697997a39.383767 39.383767 0 0 0-55.688647-55.688647L247.862133 383.201297a39.226232 39.226232 0 0 0 0 55.688647L693.450074 884.477885a39.383767 39.383767 0 1 0 55.688647-55.767414L331.434487 411.006237z"  horiz-adv-x="1024" />

    
    <glyph glyph-name="tijiao" unicode="&#58900;" d="M976.699683 462.524505h-2.866623a47.196913 47.196913 0 0 1-47.094534-47.094534V-27.668167H97.260451v437.160131a47.196913 47.196913 0 0 1-47.094534 47.094534H47.299293a47.299293 47.299293 0 0 1-47.299293-47.094534v-490.090292c0-26.004373 21.19254-47.196913 47.094534-47.196913h2.866624c5.630868 0 11.056978 1.023794 15.97119 2.866624h911.995888A46.07074 46.07074 0 0 1 1023.794217-78.857878V415.225212a47.401672 47.401672 0 0 1-47.094534 47.299293zM316.96669 583.127463L467.873957 734.23949v-513.53518c0-26.823408 22.011576-48.630225 48.630226-48.630225a48.834984 48.834984 0 0 1 48.527846 48.630225V724.820583l141.693119-142.000258a48.937364 48.937364 0 0 1 68.798972 0 49.142122 49.142122 0 0 1 0 69.00373L546.194215 881.563478a48.118328 48.118328 0 0 1-38.90418 14.025981 48.220708 48.220708 0 0 1-29.690033-14.025981l-229.329904-229.637043a49.142122 49.142122 0 0 1 0-69.00373 48.425466 48.425466 0 0 1 68.696592 0.204758z"  horiz-adv-x="1024" />

    
    <glyph glyph-name="quan" unicode="&#58901;" d="M512-54.857143a438.857143 438.857143 0 1 0 0 877.714286 438.857143 438.857143 0 0 0 0-877.714286z m0 146.285714a292.571429 292.571429 0 1 1 0 585.142858 292.571429 292.571429 0 0 1 0-585.142858z"  horiz-adv-x="1024" />

    
    <glyph glyph-name="guanbi" unicode="&#58902;" d="M426.624 384L0-42.624 85.376-128 512 298.624 938.624-128 1024-42.624 597.376 384 1024 810.624 938.624 896 512 469.376 85.376 896 0 810.624z"  horiz-adv-x="1024" />

    
    <glyph glyph-name="shaixuanzhankai" unicode="&#58903;" d="M824.056738 213.323464L174.286315 863.093886A102.100946 102.100946 0 1 1 29.915577 718.723148l721.955792-721.955792a101.794643 101.794643 0 0 1 144.370738 0l721.955791 721.853691A102.100946 102.100946 0 1 1 1473.82716 863.195987L824.056738 213.323464z"  horiz-adv-x="1735" />

    
    <glyph glyph-name="shaixuanshouqi" unicode="&#58904;" d="M826.425773 648.764455L174.787361-2.873957A102.394471 102.394471 0 0 0 30.00158 141.911825L754.032882 865.943127a102.087287 102.087287 0 0 0 144.785782 0l724.031302-724.031302a102.394471 102.394471 0 1 0-144.785781-144.785782L826.425773 648.764455z"  horiz-adv-x="1740" />

    
    <glyph glyph-name="shouqijiantou" unicode="&#58905;" d="M857.258667 603.136L141.994667-128 0 17.066667 715.093333 748.373333 712.874667 750.933333 854.698667 896 1706.666667 25.088l-141.994667-145.066667z"  horiz-adv-x="1706" />

    
    <glyph glyph-name="zhankaijiantou" unicode="&#58906;" d="M857.258667 164.864L141.994667 896 0 750.933333l715.093333-731.306666-2.389333-2.56 141.994667-145.066667L1706.666667 742.912l-141.994667 145.066667z"  horiz-adv-x="1706" />

    
    <glyph glyph-name="xialajiantou" unicode="&#58907;" d="M857.258667 164.864L141.994667 896 0 750.933333l715.093333-731.306666-2.389333-2.56 141.994667-145.066667L1706.666667 742.912l-141.994667 145.066667z"  horiz-adv-x="1706" />

    
    <glyph glyph-name="rili" unicode="&#58908;" d="M905.693867 799.3344v-877.090133H118.3744V799.3344H68.266667V-128h887.466666V799.3344h-50.039466zM222.0032 896h-50.176v-182.613333h50.176V896z m126.020267 0h-50.176v-182.613333h50.176V896z m126.088533 0H423.936v-182.613333h50.176V896zM600.064 896h-50.107733v-182.613333h50.107733V896z m126.088533 0h-50.176v-182.613333h50.176V896z m126.020267 0h-50.039467v-182.613333h50.039467V896z m-524.288-531.114667h-0.8192 0.887467z m57.480533 58.1632v-339.694933h50.107734V544.290133L291.6352 400.384l35.498667-35.498667 58.231466 58.231467z m311.432534-339.7632V544.290133L552.891733 400.315733l35.362134-35.498666 58.299733 58.299733v-339.831467h50.244267z"  horiz-adv-x="1024" />

    
    <glyph glyph-name="jiantouyou" unicode="&#58909;" d="M788.394667 384c0.64 12.714667-3.882667 25.6-13.568 35.370667L314.88 881.450667a46.293333 46.293333 0 0 1-65.706667 0 46.805333 46.805333 0 0 1 0-66.005334L678.613333 384 249.173333-47.445333a46.805333 46.805333 0 0 1 0-66.005334 46.293333 46.293333 0 0 1 65.706667 0l459.946667 462.08c9.685333 9.728 14.208 22.656 13.568 35.370667z"  horiz-adv-x="1024" />

    
    <glyph glyph-name="jiantouzuo" unicode="&#58910;" d="M235.605333 384c-0.64 12.714667 3.882667 25.6 13.568 35.370667L709.12 881.450667a46.293333 46.293333 0 0 0 65.706667 0c18.176-18.261333 18.176-47.786667 0-66.005334L345.386667 384 774.826667-47.445333c18.176-18.218667 18.176-47.786667 0-66.005334a46.293333 46.293333 0 0 0-65.706667 0L249.173333 348.629333A46.677333 46.677333 0 0 0 235.605333 384z"  horiz-adv-x="1024" />

    
    <glyph glyph-name="time" unicode="&#58911;" d="M512 896a512 512 0 1 1 0-1024 512 512 0 0 1 0 1024z m0-955.733333a443.733333 443.733333 0 1 0 0 887.466666 443.733333 443.733333 0 0 0 0-887.466666z m221.866667 409.6H512V571.733333a17.066667 17.066667 0 0 1-17.066667 17.066667h-34.133333a17.066667 17.066667 0 0 1-17.066667-17.066667v-273.066666c0-9.4208 7.645867-17.066667 17.066667-17.066667h273.066667a17.066667 17.066667 0 0 1 17.066666 17.066667v34.133333a17.066667 17.066667 0 0 1-17.066666 17.066667z"  horiz-adv-x="1024" />

    
    <glyph glyph-name="chenggong-" unicode="&#58912;" d="M468.992 265.966933s139.0592 268.049067 299.008 373.521067c-19.694933-50.517333-12.561067-145.2032 0-195.652267-77.994667-17.8176-238.3872-217.9072-290.372267-315.733333-73.659733 93.3888-159.675733 153.736533-221.013333 186.7776l84.309333 80.622933 128.068267-129.536zM512 896C229.239467 896 0 666.760533 0 384c0-282.760533 229.239467-512 512-512 282.760533 0 512 229.239467 512 512 0 282.760533-229.239467 512-512 512z m0.034133-989.9008c-263.918933 0-477.866667 213.947733-477.866666 477.866667s213.947733 477.866667 477.866666 477.866666 477.866667-213.947733 477.866667-477.866666-213.947733-477.866667-477.866667-477.866667z"  horiz-adv-x="1024" />

    


  </font>
</defs>
</svg>
